<svg width="34" height="34" viewBox="0 0 34 34" fill="none" xmlns="http://www.w3.org/2000/svg">
<path d="M31.0133 14.5853C31.0053 14.6105 30.995 14.6351 30.9824 14.66C30.9744 14.6753 30.9658 14.6912 30.9562 14.7065C30.9406 14.7324 30.923 14.7583 30.9034 14.7842C30.8914 14.8005 30.8788 14.8167 30.8659 14.8333C30.8652 14.8333 30.8652 14.834 30.8649 14.834C30.8516 14.8506 30.838 14.8669 30.824 14.8835C30.7955 14.9173 30.7659 14.9515 30.7354 14.9864L27.3616 18.8768L20.8684 26.3562C20.4391 26.8502 20.0108 27.3443 19.5824 27.838C19.1541 28.3314 18.7261 28.8241 18.2975 29.3165C17.9459 29.7203 17.5942 30.1237 17.2413 30.5265H13.8692L15.0067 28.0525L17.4647 22.6733L6.16406 24.4121L14.4801 6.94727H26.2028L23.2258 11.1727L19.7006 16.194L24.545 15.5024L24.5456 15.5017L31.0133 14.5853Z" fill="#C2511A"/>
<path d="M29.4244 12.7399C29.4164 12.7652 29.4062 12.7897 29.3935 12.8146C29.3856 12.8299 29.3769 12.8459 29.3673 12.8611C29.3517 12.887 29.3341 12.9129 29.3145 12.9388C29.3026 12.9551 29.2899 12.9714 29.277 12.988C29.2763 12.988 29.2763 12.9886 29.276 12.9886C29.2627 13.0052 29.2491 13.0215 29.2352 13.0381C29.2066 13.072 29.1771 13.1062 29.1465 13.141L25.7727 17.0314L19.2795 24.5108C18.8502 25.0048 18.4219 25.4989 17.9936 25.9926C17.5653 26.486 17.1373 26.9788 16.7086 27.4712C16.357 27.8749 16.0054 28.2783 15.6524 28.6811H12.2803L13.4179 26.2071L15.8759 20.8279L4.5752 22.5667L12.8913 5.10156H24.6139L21.637 9.32699L18.1118 14.3483L22.9561 13.6567L22.9568 13.656L29.4244 12.7396V12.7399Z" fill="#F3A826"/>
</svg>
